<svg width="2807" height="2758" viewBox="0 0 2807 2758" fill="none" xmlns="http://www.w3.org/2000/svg">
<g filter="url(#filter0_d_465_86)">
<path d="M1353.56 774.152C1384.01 756.548 1421.55 756.548 1452 774.152L1901.43 1033.97C1931.83 1051.54 1950.55 1083.99 1950.55 1119.11V1638.95C1950.55 1674.07 1931.83 1706.52 1901.43 1724.09L1452 1983.9C1421.55 2001.51 1384.01 2001.51 1353.56 1983.9L904.136 1724.09C873.735 1706.52 855.012 1674.07 855.012 1638.95V1119.1C855.012 1083.99 873.735 1051.54 904.136 1033.96L1353.56 774.152Z" fill="#04062D"/>
</g>
<path d="M1000.73 1440V1313.63H1027.53V1417.87H1078.78V1440H1000.73Z" fill="white"/>
<path d="M1186.56 1391.51C1186.56 1399.57 1185.47 1406.72 1183.28 1412.94C1181.15 1419.17 1178.01 1424.44 1173.86 1428.76C1169.77 1433.02 1164.81 1436.25 1158.99 1438.44C1153.23 1440.63 1146.72 1441.72 1139.46 1441.72C1132.66 1441.72 1126.41 1440.63 1120.7 1438.44C1115.05 1436.25 1110.13 1433.02 1105.92 1428.76C1101.77 1424.44 1098.55 1419.17 1096.24 1412.94C1093.99 1406.72 1092.87 1399.57 1092.87 1391.51C1092.87 1380.79 1094.77 1371.71 1098.57 1364.28C1102.38 1356.85 1107.79 1351.2 1114.82 1347.34C1121.85 1343.48 1130.24 1341.55 1139.98 1341.55C1149.02 1341.55 1157.03 1343.48 1164 1347.34C1171.03 1351.2 1176.54 1356.85 1180.51 1364.28C1184.55 1371.71 1186.56 1380.79 1186.56 1391.51ZM1119.75 1391.51C1119.75 1397.84 1120.44 1403.17 1121.82 1407.5C1123.21 1411.82 1125.37 1415.07 1128.31 1417.26C1131.25 1419.45 1135.08 1420.55 1139.8 1420.55C1144.47 1420.55 1148.25 1419.45 1151.13 1417.26C1154.06 1415.07 1156.2 1411.82 1157.52 1407.5C1158.91 1403.17 1159.6 1397.84 1159.6 1391.51C1159.6 1385.11 1158.91 1379.81 1157.52 1375.6C1156.2 1371.34 1154.06 1368.14 1151.13 1366.01C1148.19 1363.88 1144.36 1362.81 1139.63 1362.81C1132.66 1362.81 1127.59 1365.2 1124.42 1369.98C1121.31 1374.77 1119.75 1381.94 1119.75 1391.51Z" fill="white"/>
<path d="M1287.78 1440L1280.35 1406.2C1279.94 1404.18 1279.28 1401.22 1278.36 1397.3C1277.44 1393.32 1276.43 1389.09 1275.33 1384.59C1274.3 1380.04 1273.32 1375.83 1272.39 1371.97C1271.53 1368.11 1270.9 1365.29 1270.49 1363.5H1269.71C1269.31 1365.29 1268.68 1368.11 1267.81 1371.97C1266.95 1375.83 1265.97 1380.04 1264.87 1384.59C1263.84 1389.14 1262.86 1393.44 1261.93 1397.47C1261.01 1401.45 1260.32 1404.47 1259.86 1406.55L1252.08 1440H1223.73L1196.24 1343.36H1222.52L1233.67 1386.15C1234.42 1389.14 1235.14 1392.72 1235.83 1396.86C1236.52 1400.96 1237.13 1404.93 1237.65 1408.79C1238.22 1412.6 1238.66 1415.62 1238.94 1417.87H1239.63C1239.75 1416.2 1239.98 1413.98 1240.33 1411.21C1240.73 1408.45 1241.16 1405.59 1241.62 1402.66C1242.14 1399.66 1242.6 1396.98 1243.01 1394.62C1243.47 1392.2 1243.81 1390.56 1244.04 1389.69L1255.97 1343.36H1285.01L1296.34 1389.69C1296.74 1391.36 1297.26 1394.01 1297.89 1397.64C1298.58 1401.27 1299.19 1405.02 1299.71 1408.88C1300.23 1412.68 1300.51 1415.68 1300.57 1417.87H1301.26C1301.49 1415.91 1301.9 1413 1302.47 1409.14C1303.05 1405.28 1303.71 1401.24 1304.46 1397.04C1305.27 1392.77 1306.07 1389.14 1306.88 1386.15L1318.46 1343.36H1344.31L1316.47 1440H1287.78Z" fill="white"/>
<path d="M1351.39 1403.35V1381.74H1397.81V1403.35H1351.39Z" fill="white"/>
<path d="M1456.24 1441.72C1446.67 1441.72 1438.52 1440 1431.78 1436.54C1425.04 1433.02 1419.91 1427.61 1416.39 1420.29C1412.88 1412.97 1411.12 1403.61 1411.12 1392.2C1411.12 1380.38 1413.11 1370.76 1417.08 1363.33C1421.12 1355.84 1426.68 1350.33 1433.77 1346.82C1440.91 1343.3 1449.18 1341.55 1458.57 1341.55C1465.26 1341.55 1471.02 1342.21 1475.86 1343.53C1480.76 1344.8 1485.02 1346.33 1488.65 1348.12L1480.87 1368.51C1476.72 1366.84 1472.86 1365.49 1469.29 1364.45C1465.72 1363.36 1462.15 1362.81 1458.57 1362.81C1453.96 1362.81 1450.13 1363.9 1447.08 1366.09C1444.02 1368.23 1441.75 1371.45 1440.25 1375.77C1438.75 1380.1 1438 1385.51 1438 1392.02C1438 1398.42 1438.81 1403.72 1440.42 1407.93C1442.04 1412.14 1444.37 1415.28 1447.42 1417.35C1450.48 1419.37 1454.19 1420.38 1458.57 1420.38C1464.05 1420.38 1468.92 1419.65 1473.18 1418.21C1477.44 1416.72 1481.59 1414.64 1485.63 1411.99V1434.55C1481.59 1437.09 1477.36 1438.9 1472.92 1440C1468.54 1441.15 1462.98 1441.72 1456.24 1441.72Z" fill="white"/>
<path d="M1595.92 1391.51C1595.92 1399.57 1594.82 1406.72 1592.63 1412.94C1590.5 1419.17 1587.36 1424.44 1583.21 1428.76C1579.12 1433.02 1574.16 1436.25 1568.34 1438.44C1562.58 1440.63 1556.07 1441.72 1548.81 1441.72C1542.01 1441.72 1535.76 1440.63 1530.05 1438.44C1524.41 1436.25 1519.48 1433.02 1515.27 1428.76C1511.13 1424.44 1507.9 1419.17 1505.59 1412.94C1503.35 1406.72 1502.22 1399.57 1502.22 1391.51C1502.22 1380.79 1504.12 1371.71 1507.93 1364.28C1511.73 1356.85 1517.15 1351.2 1524.18 1347.34C1531.21 1343.48 1539.59 1341.55 1549.33 1341.55C1558.38 1341.55 1566.39 1343.48 1573.36 1347.34C1580.39 1351.2 1585.89 1356.85 1589.87 1364.28C1593.9 1371.71 1595.92 1380.79 1595.92 1391.51ZM1529.1 1391.51C1529.1 1397.84 1529.79 1403.17 1531.18 1407.5C1532.56 1411.82 1534.72 1415.07 1537.66 1417.26C1540.6 1419.45 1544.43 1420.55 1549.16 1420.55C1553.82 1420.55 1557.6 1419.45 1560.48 1417.26C1563.42 1415.07 1565.55 1411.82 1566.88 1407.5C1568.26 1403.17 1568.95 1397.84 1568.95 1391.51C1568.95 1385.11 1568.26 1379.81 1566.88 1375.6C1565.55 1371.34 1563.42 1368.14 1560.48 1366.01C1557.54 1363.88 1553.71 1362.81 1548.98 1362.81C1542.01 1362.81 1536.94 1365.2 1533.77 1369.98C1530.66 1374.77 1529.1 1381.94 1529.1 1391.51Z" fill="white"/>
<path d="M1648.3 1441.72C1637.52 1441.72 1628.73 1437.52 1621.93 1429.1C1615.19 1420.63 1611.82 1408.22 1611.82 1391.85C1611.82 1375.31 1615.25 1362.81 1622.11 1354.34C1628.96 1345.81 1637.92 1341.55 1648.99 1341.55C1653.6 1341.55 1657.66 1342.18 1661.18 1343.45C1664.69 1344.72 1667.72 1346.42 1670.25 1348.55C1672.84 1350.68 1675.03 1353.07 1676.82 1355.72H1677.68C1677.34 1353.88 1676.91 1351.17 1676.39 1347.6C1675.93 1343.97 1675.7 1340.25 1675.7 1336.45V1305.5H1702.14V1440H1681.92L1676.82 1427.46H1675.7C1674.02 1430.11 1671.92 1432.53 1669.39 1434.72C1666.91 1436.86 1663.94 1438.56 1660.48 1439.82C1657.03 1441.09 1652.96 1441.72 1648.3 1441.72ZM1657.54 1420.72C1664.75 1420.72 1669.82 1418.59 1672.76 1414.32C1675.75 1410 1677.34 1403.52 1677.51 1394.88V1392.02C1677.51 1382.63 1676.07 1375.46 1673.19 1370.5C1670.31 1365.49 1664.95 1362.98 1657.11 1362.98C1651.29 1362.98 1646.74 1365.49 1643.46 1370.5C1640.17 1375.52 1638.53 1382.75 1638.53 1392.2C1638.53 1401.65 1640.17 1408.76 1643.46 1413.55C1646.8 1418.33 1651.49 1420.72 1657.54 1420.72Z" fill="white"/>
<path d="M1769.56 1341.55C1778.5 1341.55 1786.19 1343.28 1792.64 1346.73C1799.1 1350.13 1804.08 1355.09 1807.59 1361.6C1811.11 1368.11 1812.87 1376.06 1812.87 1385.46V1398.25H1750.55C1750.84 1405.68 1753.05 1411.53 1757.2 1415.79C1761.41 1420 1767.23 1422.1 1774.66 1422.1C1780.83 1422.1 1786.48 1421.47 1791.6 1420.2C1796.73 1418.93 1802.01 1417.03 1807.42 1414.5V1434.9C1802.64 1437.26 1797.63 1438.99 1792.38 1440.08C1787.2 1441.18 1780.89 1441.72 1773.45 1441.72C1763.77 1441.72 1755.19 1439.94 1747.7 1436.37C1740.26 1432.79 1734.41 1427.35 1730.15 1420.03C1725.94 1412.71 1723.84 1403.49 1723.84 1392.37C1723.84 1381.08 1725.74 1371.68 1729.54 1364.19C1733.41 1356.64 1738.76 1351 1745.62 1347.25C1752.48 1343.45 1760.46 1341.55 1769.56 1341.55ZM1769.74 1360.3C1764.61 1360.3 1760.34 1361.95 1756.94 1365.23C1753.6 1368.51 1751.67 1373.67 1751.15 1380.7H1788.15C1788.09 1376.78 1787.37 1373.3 1785.99 1370.24C1784.66 1367.19 1782.64 1364.77 1779.94 1362.98C1777.29 1361.2 1773.89 1360.3 1769.74 1360.3Z" fill="white"/>
<g filter="url(#filter1_d_465_86)">
<path d="M309.685 1021.64C340.113 1004.07 377.601 1004.07 408.028 1021.64L643.542 1157.61C673.97 1175.18 692.714 1207.64 692.714 1242.78V1514.73C692.714 1549.86 673.97 1582.33 643.542 1599.89L408.028 1735.87C377.601 1753.43 340.113 1753.43 309.685 1735.87L74.1715 1599.89C43.7441 1582.33 25 1549.86 25 1514.73V1242.78C25 1207.64 43.7441 1175.18 74.1715 1157.61L309.685 1021.64Z" fill="#FE6F6F"/>
</g>
<path opacity="0.4" d="M538.736 1453.87C538.465 1452.24 537.626 1450.75 536.371 1449.68C535.115 1448.62 533.523 1448.03 531.88 1448.03H522.607C520.603 1442.35 517.574 1437.09 513.671 1432.51L518.274 1424.41C519.089 1422.98 519.378 1421.3 519.09 1419.67C518.802 1418.05 517.956 1416.57 516.7 1415.51C511.319 1411 505.219 1407.44 498.66 1404.98C497.115 1404.39 495.413 1404.37 493.857 1404.93C492.302 1405.49 490.996 1406.59 490.173 1408.04L485.565 1416.14C479.674 1415.06 473.64 1415.06 467.749 1416.14L463.141 1408.04C462.318 1406.59 461.012 1405.49 459.456 1404.93C457.901 1404.37 456.199 1404.39 454.654 1404.98C448.101 1407.45 442.003 1411.01 436.614 1415.51C435.346 1416.57 434.491 1418.04 434.203 1419.67C433.915 1421.3 434.211 1422.98 435.04 1424.41L439.649 1432.51C435.746 1437.09 432.716 1442.35 430.713 1448.03H421.439C419.791 1448.04 418.198 1448.64 416.943 1449.72C415.688 1450.8 414.852 1452.29 414.583 1453.93C413.431 1460.89 413.431 1467.99 414.583 1474.95C414.855 1476.58 415.693 1478.06 416.949 1479.13C418.205 1480.2 419.796 1480.79 421.439 1480.78H430.713C432.716 1486.47 435.746 1491.73 439.649 1496.31L435.04 1504.41C434.225 1505.84 433.936 1507.52 434.224 1509.14C434.511 1510.77 435.357 1512.24 436.614 1513.3C441.995 1517.82 448.095 1521.38 454.654 1523.84C456.199 1524.43 457.901 1524.45 459.456 1523.89C461.012 1523.33 462.318 1522.23 463.141 1520.78L467.749 1512.68C473.64 1513.76 479.674 1513.76 485.565 1512.68L490.173 1520.78C490.996 1522.23 492.302 1523.33 493.857 1523.89C495.413 1524.45 497.115 1524.43 498.66 1523.84C505.213 1521.37 511.311 1517.8 516.7 1513.3C517.968 1512.25 518.822 1510.78 519.111 1509.15C519.399 1507.52 519.102 1505.84 518.274 1504.41L513.665 1496.31C517.568 1491.73 520.598 1486.47 522.601 1480.78H531.874C533.523 1480.77 535.116 1480.18 536.371 1479.1C537.626 1478.02 538.462 1476.53 538.731 1474.89C539.885 1467.93 539.887 1460.83 538.736 1453.87V1453.87ZM461.854 1479.31C445.218 1457.5 469.89 1432.62 491.528 1449.39C508.157 1471.2 483.491 1496.07 461.854 1479.3V1479.31ZM538.736 1284.52C538.465 1282.89 537.626 1281.41 536.371 1280.34C535.115 1279.27 533.523 1278.68 531.88 1278.69H522.607C520.603 1273 517.574 1267.74 513.671 1263.16L518.279 1255.06C519.094 1253.63 519.383 1251.95 519.096 1250.33C518.808 1248.7 517.962 1247.23 516.706 1246.17C511.324 1241.65 505.225 1238.09 498.665 1235.63C497.121 1235.04 495.417 1235.02 493.861 1235.58C492.305 1236.14 490.997 1237.24 490.173 1238.68L485.565 1246.78C479.674 1245.71 473.64 1245.71 467.749 1246.78L463.141 1238.68C462.318 1237.24 461.012 1236.14 459.456 1235.58C457.901 1235.02 456.199 1235.03 454.654 1235.62C448.101 1238.1 442.003 1241.66 436.614 1246.16C435.346 1247.21 434.491 1248.69 434.203 1250.32C433.915 1251.95 434.211 1253.63 435.04 1255.06L439.649 1263.16C435.746 1267.73 432.716 1273 430.713 1278.68H421.439C419.791 1278.69 418.198 1279.29 416.943 1280.37C415.688 1281.44 414.852 1282.93 414.583 1284.57C413.431 1291.53 413.431 1298.64 414.583 1305.59C414.855 1307.23 415.693 1308.71 416.949 1309.78C418.205 1310.85 419.796 1311.43 421.439 1311.43H430.713C432.716 1317.12 435.746 1322.38 439.649 1326.95L435.04 1335.06C434.225 1336.49 433.936 1338.17 434.224 1339.79C434.511 1341.42 435.357 1342.89 436.614 1343.95C441.995 1348.46 448.095 1352.03 454.654 1354.49C456.199 1355.08 457.901 1355.1 459.456 1354.53C461.012 1353.97 462.318 1352.87 463.141 1351.43L467.749 1343.33C473.64 1344.4 479.674 1344.4 485.565 1343.33L490.173 1351.43C490.996 1352.87 492.302 1353.97 493.857 1354.53C495.413 1355.1 497.115 1355.08 498.66 1354.49C505.213 1352.01 511.311 1348.45 516.7 1343.95C517.968 1342.9 518.822 1341.42 519.111 1339.8C519.399 1338.17 519.102 1336.49 518.274 1335.06L513.665 1326.95C517.568 1322.38 520.598 1317.12 522.601 1311.43H531.874C533.523 1311.42 535.116 1310.83 536.371 1309.75C537.626 1308.67 538.462 1307.18 538.731 1305.54C539.885 1298.58 539.887 1291.48 538.736 1284.52V1284.52ZM461.854 1310.02C445.218 1288.21 469.89 1263.28 491.528 1280.1C508.157 1301.91 483.491 1326.78 461.854 1310.01V1310.02Z" fill="white"/>
<path d="M414.761 1406.43L395.587 1396.85C397.806 1384.87 397.806 1372.59 395.587 1360.61L414.766 1351.02C420.515 1347.66 422.734 1340.64 420.458 1334.42C415.393 1320.61 405.717 1307.94 396.497 1296.87C394.436 1294.41 391.577 1292.76 388.424 1292.21C385.27 1291.66 382.023 1292.23 379.252 1293.84L362.691 1303.43C353.471 1295.53 342.879 1289.4 331.445 1285.34V1266.17C331.436 1262.93 330.289 1259.81 328.206 1257.35C326.124 1254.88 323.239 1253.24 320.062 1252.7C305.743 1250.29 291.122 1250.31 276.808 1252.75C273.673 1253.32 270.836 1254.97 268.795 1257.42C266.754 1259.88 265.64 1262.97 265.647 1266.17V1285.4C254.203 1289.43 243.607 1295.57 234.402 1303.49L217.84 1293.89C215.07 1292.28 211.822 1291.7 208.668 1292.26C205.514 1292.81 202.655 1294.46 200.595 1296.92C191.375 1307.99 181.643 1320.66 176.578 1334.47C175.457 1337.49 175.443 1340.81 176.537 1343.84C177.631 1346.87 179.764 1349.42 182.554 1351.02L201.506 1360.66C199.286 1372.62 199.286 1384.89 201.506 1396.84L182.554 1406.43C179.775 1408.06 177.655 1410.61 176.562 1413.65C175.47 1416.68 175.476 1420.01 176.578 1423.04C181.643 1436.79 191.375 1449.46 200.595 1460.53C202.657 1462.99 205.515 1464.64 208.669 1465.19C211.822 1465.74 215.069 1465.16 217.84 1463.55L234.402 1454.02C243.622 1461.93 254.213 1468.06 265.647 1472.12V1491.29C265.656 1494.52 266.803 1497.64 268.886 1500.11C270.969 1502.57 273.853 1504.22 277.03 1504.76C291.325 1507.21 305.932 1507.21 320.227 1504.76C323.376 1504.19 326.225 1502.53 328.275 1500.07C330.326 1497.61 331.446 1494.5 331.439 1491.29V1472.12C342.884 1468.08 353.479 1461.95 362.685 1454.02L379.247 1463.61C382.017 1465.22 385.264 1465.8 388.419 1465.25C391.573 1464.7 394.431 1463.05 396.492 1460.59C405.712 1449.52 415.671 1436.85 420.737 1423.04C421.854 1420.01 421.867 1416.68 420.773 1413.64C419.68 1410.6 417.55 1408.05 414.761 1406.43ZM328.651 1408.88C284.827 1442.67 234.8 1392.51 268.493 1348.56C312.316 1314.78 362.349 1364.94 328.656 1408.88H328.651Z" fill="white"/>
<g filter="url(#filter2_d_465_86)">
<path d="M2398.49 1021.64C2428.92 1004.07 2466.41 1004.07 2496.84 1021.64L2732.35 1157.61C2762.78 1175.18 2781.52 1207.64 2781.52 1242.78V1514.73C2781.52 1549.86 2762.78 1582.33 2732.35 1599.89L2496.84 1735.87C2466.41 1753.43 2428.92 1753.43 2398.49 1735.87L2162.98 1599.89C2132.55 1582.33 2113.81 1549.86 2113.81 1514.73V1242.78C2113.81 1207.64 2132.55 1175.18 2162.98 1157.61L2398.49 1021.64Z" fill="#5066DD"/>
</g>
<path opacity="0.4" d="M2566.87 1282.42L2458.45 1237.24C2455.14 1235.87 2451.6 1235.17 2448.03 1235.17C2444.45 1235.17 2440.91 1235.87 2437.61 1237.24L2329.18 1282.42C2324.23 1284.48 2320 1287.95 2317.02 1292.41C2314.05 1296.86 2312.46 1302.1 2312.46 1307.46C2312.46 1419.56 2377.12 1497.03 2437.55 1522.22C2440.85 1523.59 2444.39 1524.3 2447.97 1524.3C2451.55 1524.3 2455.09 1523.59 2458.39 1522.22C2506.79 1502.05 2583.53 1432.42 2583.53 1307.46C2583.54 1302.11 2581.96 1296.87 2578.99 1292.42C2576.03 1287.96 2571.81 1284.48 2566.87 1282.42V1282.42ZM2540.22 1346.92L2436.31 1450.83C2434.61 1452.51 2432.32 1453.46 2429.93 1453.46C2427.54 1453.46 2425.24 1452.51 2423.54 1450.83L2364.81 1392.1C2363.13 1390.4 2362.19 1388.11 2362.19 1385.72C2362.19 1383.32 2363.13 1381.03 2364.81 1379.33L2377.58 1366.57C2379.27 1364.89 2381.57 1363.95 2383.96 1363.95C2386.35 1363.95 2388.64 1364.89 2390.34 1366.57L2429.93 1406.16L2514.69 1321.39C2516.39 1319.71 2518.69 1318.77 2521.07 1318.77C2523.46 1318.77 2525.76 1319.71 2527.46 1321.39L2540.22 1334.15C2541.06 1334.99 2541.74 1335.98 2542.19 1337.08C2542.65 1338.17 2542.89 1339.35 2542.89 1340.54C2542.89 1341.72 2542.65 1342.9 2542.19 1344C2541.74 1345.09 2541.06 1346.09 2540.22 1346.92V1346.92Z" fill="white"/>
<path d="M2540.21 1346.91L2436.3 1450.82C2434.6 1452.51 2432.31 1453.45 2429.92 1453.45C2427.53 1453.45 2425.24 1452.51 2423.54 1450.82L2364.81 1392.09C2363.12 1390.39 2362.18 1388.1 2362.18 1385.71C2362.18 1383.32 2363.12 1381.02 2364.81 1379.32L2377.57 1366.56C2379.27 1364.88 2381.56 1363.94 2383.95 1363.94C2386.34 1363.94 2388.63 1364.88 2390.33 1366.56L2429.92 1406.15L2514.69 1321.38C2516.39 1319.7 2518.68 1318.76 2521.07 1318.76C2523.46 1318.76 2525.75 1319.7 2527.45 1321.38L2540.21 1334.14C2541.06 1334.98 2541.73 1335.97 2542.19 1337.07C2542.64 1338.16 2542.88 1339.34 2542.88 1340.53C2542.88 1341.72 2542.64 1342.89 2542.19 1343.99C2541.73 1345.08 2541.06 1346.08 2540.21 1346.91V1346.91Z" fill="white"/>
<g filter="url(#filter3_d_465_86)">
<path d="M547.202 2147.25C547.202 2112.12 565.946 2079.65 596.374 2062.09L831.887 1926.11C862.315 1908.55 899.803 1908.55 930.23 1926.11L1165.74 2062.09C1196.17 2079.65 1214.92 2112.12 1214.92 2147.25L1214.92 2419.2C1214.92 2454.34 1196.17 2486.8 1165.74 2504.37L930.231 2640.34C899.803 2657.91 862.315 2657.91 831.888 2640.34L596.374 2504.37C565.946 2486.8 547.202 2454.34 547.202 2419.2L547.202 2147.25Z" fill="#FFAA5C"/>
</g>
<g filter="url(#filter4_d_465_86)">
<path d="M1640.77 2504.37C1610.35 2486.8 1591.6 2454.34 1591.6 2419.2L1591.6 2147.26C1591.6 2112.12 1610.35 2079.66 1640.77 2062.09L1876.29 1926.11C1906.72 1908.55 1944.2 1908.55 1974.63 1926.11L2210.15 2062.09C2240.57 2079.66 2259.32 2112.12 2259.32 2147.26L2259.32 2419.2C2259.32 2454.34 2240.57 2486.8 2210.15 2504.37L1974.63 2640.35C1944.2 2657.91 1906.72 2657.91 1876.29 2640.35L1640.77 2504.37Z" fill="#4EAAFF"/>
</g>
<g filter="url(#filter5_d_465_86)">
<path d="M596.372 695.414C565.945 677.847 547.201 645.381 547.201 610.247L547.201 338.299C547.201 303.164 565.945 270.699 596.372 253.131L831.886 117.157C862.314 99.5901 899.802 99.5901 930.229 117.157L1165.74 253.131C1196.17 270.699 1214.91 303.164 1214.91 338.299L1214.91 610.247C1214.91 645.381 1196.17 677.847 1165.74 695.414L930.229 831.388C899.802 848.956 862.314 848.956 831.886 831.388L596.372 695.414Z" fill="#8194F3"/>
</g>
<g filter="url(#filter6_d_465_86)">
<path d="M1875.31 117.156C1905.73 99.5886 1943.22 99.5886 1973.65 117.156L2209.16 253.13C2239.59 270.697 2258.33 303.163 2258.33 338.297V610.245C2258.33 645.38 2239.59 677.846 2209.16 695.413L1973.65 831.387C1943.22 848.954 1905.73 848.954 1875.31 831.387L1639.79 695.413C1609.37 677.846 1590.62 645.38 1590.62 610.245V338.297C1590.62 303.163 1609.37 270.697 1639.79 253.13L1875.31 117.156Z" fill="#38C7B6"/>
</g>
<path opacity="0.4" d="M1899.15 375.863C1915.88 375.863 1932.08 381.661 1945 392.269C1957.93 402.877 1966.78 417.639 1970.04 434.038C1973.3 450.438 1970.78 467.462 1962.89 482.209C1955.01 496.956 1942.26 508.513 1926.81 514.912C1911.36 521.311 1894.17 522.155 1878.17 517.301C1862.17 512.447 1848.35 502.195 1839.06 488.292C1829.77 474.389 1825.59 457.695 1827.23 441.054C1828.87 424.413 1836.22 408.856 1848.05 397.032C1854.74 390.299 1862.71 384.962 1871.48 381.328C1880.25 377.694 1889.66 375.837 1899.15 375.863V375.863ZM1899.15 330.691C1834.29 330.691 1781.71 383.271 1781.71 448.138C1781.71 513.005 1834.29 565.585 1899.15 565.585C1964.02 565.585 2016.6 513.005 2016.6 448.138C2016.6 383.271 1964.02 330.691 1899.15 330.691Z" fill="white"/>
<path d="M1946.58 432.33H1914.96V400.709C1914.96 398.912 1914.24 397.189 1912.97 395.918C1911.7 394.647 1909.98 393.934 1908.18 393.934H1890.11C1888.32 393.934 1886.59 394.647 1885.32 395.918C1884.05 397.189 1883.34 398.912 1883.34 400.709V432.33H1851.72C1849.92 432.33 1848.2 433.044 1846.93 434.314C1845.66 435.585 1844.94 437.308 1844.94 439.105V457.174C1844.94 458.971 1845.66 460.695 1846.93 461.965C1848.2 463.236 1849.92 463.95 1851.72 463.95H1883.34V495.57C1883.34 497.367 1884.05 499.091 1885.32 500.362C1886.59 501.632 1888.32 502.346 1890.11 502.346H1908.18C1909.98 502.346 1911.7 501.632 1912.97 500.362C1914.24 499.091 1914.96 497.367 1914.96 495.57V463.95H1946.58C1948.38 463.95 1950.1 463.236 1951.37 461.965C1952.64 460.695 1953.35 458.971 1953.35 457.174V439.105C1953.35 437.308 1952.64 435.585 1951.37 434.314C1950.1 433.044 1948.38 432.33 1946.58 432.33ZM2066.85 580.663L2010.55 524.367C2009.29 523.11 2007.79 522.114 2006.15 521.436C2004.5 520.757 2002.74 520.41 2000.95 520.415H1991.75L1971.42 540.742V549.946C1971.42 551.727 1971.77 553.492 1972.44 555.139C1973.12 556.786 1974.12 558.283 1975.38 559.545L2031.67 615.84C2032.92 617.102 2034.42 618.103 2036.06 618.787C2037.7 619.47 2039.46 619.821 2041.24 619.821C2043.02 619.821 2044.78 619.47 2046.42 618.787C2048.07 618.103 2049.56 617.102 2050.81 615.84L2066.79 599.861C2069.34 597.318 2070.77 593.871 2070.78 590.274C2070.79 586.676 2069.38 583.221 2066.85 580.663V580.663Z" fill="white"/>
<path d="M880.044 330.684C822.435 330.859 780.961 377.557 780.961 430.078C780.927 454.141 789.674 477.39 805.561 495.463C814.89 506.108 829.483 528.342 835.046 547.103C835.046 547.261 835.085 547.402 835.108 547.543H925.601C925.601 547.402 925.641 547.261 925.664 547.103C931.226 528.342 945.819 506.108 955.149 495.463C971.035 477.39 979.782 454.141 979.748 430.078C979.748 375.089 935.083 330.509 880.044 330.684ZM880.355 384.899C868.377 384.912 856.893 389.677 848.423 398.146C839.953 406.616 835.189 418.1 835.176 430.078C835.176 432.474 834.224 434.773 832.529 436.467C830.835 438.162 828.536 439.114 826.14 439.114C823.744 439.114 821.445 438.162 819.751 436.467C818.056 434.773 817.104 432.474 817.104 430.078C817.122 413.308 823.792 397.231 835.65 385.373C847.508 373.515 863.585 366.845 880.355 366.827C882.751 366.827 885.049 367.779 886.744 369.474C888.439 371.168 889.391 373.467 889.391 375.863C889.391 378.26 888.439 380.558 886.744 382.252C885.049 383.947 882.751 384.899 880.355 384.899Z" fill="white"/>
<path opacity="0.4" d="M835.204 587.267C835.211 590.816 836.264 594.285 838.231 597.24L847.888 611.748C850.841 616.215 857.584 619.813 862.932 619.813H897.776C903.124 619.813 909.867 616.215 912.821 611.748L922.472 597.24C924.307 594.223 925.357 590.794 925.528 587.267V565.615H835.17L835.204 587.267ZM762.883 439.114C762.883 435.519 761.455 432.072 758.914 429.53C756.372 426.988 752.924 425.56 749.33 425.56H713.187C709.592 425.56 706.144 426.988 703.603 429.53C701.061 432.072 699.633 435.519 699.633 439.114C699.633 442.709 701.061 446.156 703.603 448.698C706.144 451.24 709.592 452.668 713.187 452.668H749.33C752.924 452.668 756.372 451.24 758.914 448.698C761.455 446.156 762.883 442.709 762.883 439.114V439.114ZM1047.51 425.56H1011.37C1007.77 425.56 1004.33 426.988 1001.78 429.53C999.242 432.072 997.814 435.519 997.814 439.114C997.814 442.709 999.242 446.156 1001.78 448.698C1004.33 451.24 1007.77 452.668 1011.37 452.668H1047.51C1051.11 452.668 1054.55 451.24 1057.09 448.698C1059.64 446.156 1061.06 442.709 1061.06 439.114C1061.06 435.519 1059.64 432.072 1057.09 429.53C1054.55 426.988 1051.11 425.56 1047.51 425.56ZM773.659 361.869L742.361 343.798C740.818 342.869 739.106 342.257 737.324 341.997C735.542 341.737 733.726 341.836 731.983 342.286C730.239 342.736 728.603 343.528 727.169 344.618C725.735 345.708 724.533 347.072 723.633 348.631C722.732 350.191 722.151 351.914 721.924 353.7C721.697 355.486 721.829 357.3 722.31 359.035C722.792 360.77 723.615 362.392 724.73 363.805C725.846 365.219 727.232 366.396 728.807 367.268L760.105 385.34C761.648 386.268 763.36 386.88 765.142 387.14C766.924 387.4 768.739 387.302 770.483 386.852C772.226 386.402 773.863 385.609 775.297 384.519C776.73 383.43 777.932 382.065 778.833 380.506C779.733 378.947 780.314 377.223 780.541 375.437C780.768 373.651 780.637 371.837 780.155 370.102C779.674 368.367 778.851 366.745 777.736 365.332C776.62 363.918 775.234 362.741 773.659 361.869V361.869ZM1031.89 510.96L1000.59 492.888C999.05 491.959 997.337 491.347 995.556 491.088C993.774 490.828 991.958 490.926 990.214 491.376C988.471 491.826 986.834 492.619 985.401 493.709C983.967 494.798 982.765 496.162 981.864 497.722C980.964 499.281 980.383 501.004 980.156 502.791C979.929 504.577 980.06 506.391 980.542 508.126C981.024 509.861 981.846 511.482 982.962 512.896C984.077 514.31 985.463 515.487 987.039 516.359L1018.34 534.43C1021.44 536.15 1025.1 536.581 1028.53 535.631C1031.95 534.681 1034.86 532.425 1036.64 529.349C1038.41 526.273 1038.91 522.623 1038.02 519.184C1037.14 515.745 1034.93 512.792 1031.89 510.96ZM760.105 492.888L728.807 510.96C727.232 511.832 725.846 513.009 724.73 514.422C723.615 515.836 722.792 517.458 722.31 519.193C721.829 520.928 721.697 522.741 721.924 524.528C722.151 526.314 722.732 528.037 723.633 529.597C724.533 531.156 725.735 532.52 727.169 533.61C728.603 534.699 730.239 535.492 731.983 535.942C733.726 536.392 735.542 536.49 737.324 536.231C739.106 535.971 740.818 535.359 742.361 534.43L773.659 516.359C776.701 514.527 778.904 511.573 779.791 508.134C780.679 504.695 780.181 501.045 778.405 497.969C776.629 494.893 773.716 492.637 770.294 491.687C766.871 490.737 763.213 491.168 760.105 492.888V492.888ZM993.827 387.158C996.207 387.163 998.546 386.535 1000.6 385.34L1031.9 367.268C1034.94 365.436 1037.15 362.483 1038.03 359.044C1038.92 355.604 1038.42 351.954 1036.65 348.878C1034.87 345.803 1031.96 343.547 1028.54 342.597C1025.11 341.647 1021.46 342.078 1018.35 343.798L987.05 361.869C984.467 363.362 982.449 365.664 981.308 368.42C980.167 371.176 979.968 374.232 980.74 377.113C981.512 379.994 983.213 382.54 985.579 384.356C987.945 386.172 990.844 387.157 993.827 387.158Z" fill="white"/>
<path opacity="0.4" d="M899.321 2176.34H863.18V2149.23C863.18 2146.84 864.132 2144.54 865.826 2142.85C867.52 2141.15 869.819 2140.2 872.215 2140.2H890.285C892.682 2140.2 894.98 2141.15 896.674 2142.85C898.369 2144.54 899.321 2146.84 899.321 2149.23V2176.34ZM863.18 2393.19V2420.29C863.18 2422.69 864.132 2424.99 865.826 2426.68C867.52 2428.38 869.819 2429.33 872.215 2429.33H890.285C892.682 2429.33 894.98 2428.38 896.674 2426.68C898.369 2424.99 899.321 2422.69 899.321 2420.29V2393.19H863.18Z" fill="white"/>
<path d="M959.028 2352.02C950.332 2376.92 925.648 2392.57 899.328 2393.07L863.187 2393.19C845.474 2393.11 828.288 2387.15 814.334 2376.25C809.873 2372.8 809.308 2366.31 813.318 2362.41L832.975 2343.21C834.405 2341.79 836.277 2340.91 838.281 2340.7C840.285 2340.49 842.299 2340.98 843.987 2342.08C849.685 2345.94 856.41 2348.01 863.294 2348.01H900.739C904.75 2348.02 908.628 2346.57 911.661 2343.95C914.693 2341.32 916.677 2337.69 917.247 2333.72C917.817 2329.75 916.935 2325.71 914.764 2322.34C912.592 2318.97 909.277 2316.49 905.426 2315.37L847.533 2298.43C822.46 2291.09 802.577 2269.91 800.205 2243.88C799.461 2235.79 800.318 2227.63 802.728 2219.87C805.137 2212.11 809.051 2204.9 814.247 2198.65C819.442 2192.4 825.817 2187.24 833.008 2183.46C840.199 2179.67 848.065 2177.34 856.156 2176.6V2176.6C858.02 2176.43 859.889 2176.34 861.758 2176.34H899.328C917.042 2176.41 934.229 2182.37 948.186 2193.28C952.647 2196.73 953.212 2203.22 949.202 2207.12L929.545 2226.32C928.115 2227.73 926.242 2228.62 924.239 2228.83C922.235 2229.03 920.221 2228.54 918.533 2227.45C912.83 2223.59 906.102 2221.52 899.215 2221.52H861.769C857.759 2221.51 853.881 2222.95 850.848 2225.58C847.815 2228.2 845.832 2231.83 845.262 2235.8C844.692 2239.77 845.573 2243.81 847.745 2247.19C849.916 2250.56 853.232 2253.03 857.082 2254.16L918.07 2272C950.783 2281.54 971.175 2317.23 959.028 2352.02Z" fill="white"/>
<path opacity="0.5" d="M1804.5 2193.78L1759.53 2244.49C1758.09 2246.24 1757 2248.26 1756.33 2250.43C1755.32 2254.2 1755.85 2258.22 1757.81 2261.6C1759.76 2264.98 1762.97 2267.45 1766.74 2268.46L1822.13 2283.3C1843.55 2258.93 1877.87 2219.88 1893.27 2202.44C1893.72 2201.98 1894.14 2201.55 1894.59 2201.1L1834.12 2184.89C1824.43 2182.3 1811.18 2186.29 1804.5 2193.78ZM1868.33 2363.41L1853.47 2418.86C1852.52 2422.61 1853.08 2426.59 1855.03 2429.94C1856.98 2433.28 1860.16 2435.73 1863.89 2436.76C1866.09 2437.26 1868.37 2437.33 1870.59 2436.95L1936.94 2423.36C1946.77 2421.35 1956.85 2411.86 1959.45 2402.17L1975.57 2342.01C1975.61 2342 1975.66 2341.98 1975.7 2341.96L1975.78 2341.65C1975.16 2341.81 1974.59 2341.97 1973.96 2342.13C1951.14 2346.82 1900.06 2357.06 1868.33 2363.41Z" fill="white"/>
<path d="M2092.56 2184.17C2092.63 2182.23 2092.17 2180.31 2091.22 2178.63C2090.26 2176.94 2088.86 2175.57 2087.17 2174.66C2069.15 2165.38 2053.88 2161.29 2039.19 2157.35C1986.54 2143.24 1940.15 2156.87 1893.18 2200.25C1892.7 2200.75 1892.25 2201.21 1891.77 2201.7C1873.87 2222.21 1830.31 2272.32 1811.23 2294.27C1808.52 2297.39 1806.84 2301.29 1806.43 2305.41C1806.02 2309.54 1806.9 2313.68 1808.94 2317.25L1832.06 2357.71C1834.09 2361.27 1837.18 2364.09 1840.89 2365.77C1844.59 2367.45 1848.74 2367.92 1852.74 2367.09L1862.23 2365.13C1893.44 2358.7 1948.03 2347.45 1971.77 2342.44C1972.43 2342.26 1973.02 2342.1 1973.68 2341.92C2034.19 2322.16 2069 2288.2 2083.24 2235.06C2087.31 2220.05 2091.45 2204.78 2092.56 2184.17ZM1983.88 2265.74C1978.28 2264.24 1973.25 2261.09 1969.43 2256.68C1965.62 2252.27 1963.19 2246.81 1962.45 2240.98C1961.71 2235.16 1962.7 2229.23 1965.29 2223.95C1967.87 2218.66 1971.95 2214.27 1976.99 2211.31C1982.03 2208.35 1987.81 2206.97 1993.61 2207.33C1999.4 2207.7 2004.95 2209.79 2009.55 2213.36C2014.14 2216.92 2017.58 2221.79 2019.43 2227.35C2021.28 2232.91 2021.45 2238.91 2019.93 2244.6C2017.89 2252.22 2012.94 2258.72 2006.18 2262.69C1999.42 2266.66 1991.4 2267.75 1983.88 2265.74Z" fill="white"/>
<defs>
<filter id="filter0_d_465_86" x="830.012" y="735.949" width="1145.54" height="1286.16" filterUnits="userSpaceOnUse" color-interpolation-filters="sRGB">
<feFlood flood-opacity="0" result="BackgroundImageFix"/>
<feColorMatrix in="SourceAlpha" type="matrix" values="0 0 0 0 0 0 0 0 0 0 0 0 0 0 0 0 0 0 127 0" result="hardAlpha"/>
<feOffset/>
<feGaussianBlur stdDeviation="12.5"/>
<feComposite in2="hardAlpha" operator="out"/>
<feColorMatrix type="matrix" values="0 0 0 0 0 0 0 0 0 0 0 0 0 0 0 0 0 0 0.1 0"/>
<feBlend mode="normal" in2="BackgroundImageFix" result="effect1_dropShadow_465_86"/>
<feBlend mode="normal" in="SourceGraphic" in2="effect1_dropShadow_465_86" result="shape"/>
</filter>
<filter id="filter1_d_465_86" x="0" y="983.461" width="717.715" height="790.582" filterUnits="userSpaceOnUse" color-interpolation-filters="sRGB">
<feFlood flood-opacity="0" result="BackgroundImageFix"/>
<feColorMatrix in="SourceAlpha" type="matrix" values="0 0 0 0 0 0 0 0 0 0 0 0 0 0 0 0 0 0 127 0" result="hardAlpha"/>
<feOffset/>
<feGaussianBlur stdDeviation="12.5"/>
<feComposite in2="hardAlpha" operator="out"/>
<feColorMatrix type="matrix" values="0 0 0 0 0 0 0 0 0 0 0 0 0 0 0 0 0 0 0.1 0"/>
<feBlend mode="normal" in2="BackgroundImageFix" result="effect1_dropShadow_465_86"/>
<feBlend mode="normal" in="SourceGraphic" in2="effect1_dropShadow_465_86" result="shape"/>
</filter>
<filter id="filter2_d_465_86" x="2088.81" y="983.461" width="717.715" height="790.582" filterUnits="userSpaceOnUse" color-interpolation-filters="sRGB">
<feFlood flood-opacity="0" result="BackgroundImageFix"/>
<feColorMatrix in="SourceAlpha" type="matrix" values="0 0 0 0 0 0 0 0 0 0 0 0 0 0 0 0 0 0 127 0" result="hardAlpha"/>
<feOffset/>
<feGaussianBlur stdDeviation="12.5"/>
<feComposite in2="hardAlpha" operator="out"/>
<feColorMatrix type="matrix" values="0 0 0 0 0 0 0 0 0 0 0 0 0 0 0 0 0 0 0.1 0"/>
<feBlend mode="normal" in2="BackgroundImageFix" result="effect1_dropShadow_465_86"/>
<feBlend mode="normal" in="SourceGraphic" in2="effect1_dropShadow_465_86" result="shape"/>
</filter>
<filter id="filter3_d_465_86" x="522.203" y="1887.94" width="717.711" height="790.582" filterUnits="userSpaceOnUse" color-interpolation-filters="sRGB">
<feFlood flood-opacity="0" result="BackgroundImageFix"/>
<feColorMatrix in="SourceAlpha" type="matrix" values="0 0 0 0 0 0 0 0 0 0 0 0 0 0 0 0 0 0 127 0" result="hardAlpha"/>
<feOffset/>
<feGaussianBlur stdDeviation="12.5"/>
<feComposite in2="hardAlpha" operator="out"/>
<feColorMatrix type="matrix" values="0 0 0 0 0 0 0 0 0 0 0 0 0 0 0 0 0 0 0.1 0"/>
<feBlend mode="normal" in2="BackgroundImageFix" result="effect1_dropShadow_465_86"/>
<feBlend mode="normal" in="SourceGraphic" in2="effect1_dropShadow_465_86" result="shape"/>
</filter>
<filter id="filter4_d_465_86" x="1566.6" y="1887.94" width="717.715" height="790.582" filterUnits="userSpaceOnUse" color-interpolation-filters="sRGB">
<feFlood flood-opacity="0" result="BackgroundImageFix"/>
<feColorMatrix in="SourceAlpha" type="matrix" values="0 0 0 0 0 0 0 0 0 0 0 0 0 0 0 0 0 0 127 0" result="hardAlpha"/>
<feOffset/>
<feGaussianBlur stdDeviation="12.5"/>
<feComposite in2="hardAlpha" operator="out"/>
<feColorMatrix type="matrix" values="0 0 0 0 0 0 0 0 0 0 0 0 0 0 0 0 0 0 0.1 0"/>
<feBlend mode="normal" in2="BackgroundImageFix" result="effect1_dropShadow_465_86"/>
<feBlend mode="normal" in="SourceGraphic" in2="effect1_dropShadow_465_86" result="shape"/>
</filter>
<filter id="filter5_d_465_86" x="522.199" y="78.9805" width="717.715" height="790.582" filterUnits="userSpaceOnUse" color-interpolation-filters="sRGB">
<feFlood flood-opacity="0" result="BackgroundImageFix"/>
<feColorMatrix in="SourceAlpha" type="matrix" values="0 0 0 0 0 0 0 0 0 0 0 0 0 0 0 0 0 0 127 0" result="hardAlpha"/>
<feOffset/>
<feGaussianBlur stdDeviation="12.5"/>
<feComposite in2="hardAlpha" operator="out"/>
<feColorMatrix type="matrix" values="0 0 0 0 0 0 0 0 0 0 0 0 0 0 0 0 0 0 0.1 0"/>
<feBlend mode="normal" in2="BackgroundImageFix" result="effect1_dropShadow_465_86"/>
<feBlend mode="normal" in="SourceGraphic" in2="effect1_dropShadow_465_86" result="shape"/>
</filter>
<filter id="filter6_d_465_86" x="1565.62" y="78.9805" width="717.715" height="790.582" filterUnits="userSpaceOnUse" color-interpolation-filters="sRGB">
<feFlood flood-opacity="0" result="BackgroundImageFix"/>
<feColorMatrix in="SourceAlpha" type="matrix" values="0 0 0 0 0 0 0 0 0 0 0 0 0 0 0 0 0 0 127 0" result="hardAlpha"/>
<feOffset/>
<feGaussianBlur stdDeviation="12.5"/>
<feComposite in2="hardAlpha" operator="out"/>
<feColorMatrix type="matrix" values="0 0 0 0 0 0 0 0 0 0 0 0 0 0 0 0 0 0 0.1 0"/>
<feBlend mode="normal" in2="BackgroundImageFix" result="effect1_dropShadow_465_86"/>
<feBlend mode="normal" in="SourceGraphic" in2="effect1_dropShadow_465_86" result="shape"/>
</filter>
</defs>
</svg>
